<?xml version="1.0" encoding="UTF-8"?>
<svg version="1.1" viewBox="0 0 1200 1200" width="1280" height="1280" xmlns="http://www.w3.org/2000/svg">
<path transform="translate(253,485)" d="m0 0h33l1 1v48h67l1-6 1-2h116l-1 8h19v-6l1-2h218l1 2v6h13l6 1-1-9h116l4 13 5 26 2 20v29l-2 21-4 21 50-1v-120l1-1h33v186l-3 9-7 10-8 6-11 4-97 1-11 13-7 8-9 10-14 13-14 11-13 9-15 9-16 8-16 7-24 8-7 2-4-1 8-8 10-13 13-21 12-25 9-24 7-24 6-26 3-14 1-1h111l1 2-9 20-1 2h71v-25h-90l-12-3-9-6-6-6-25-1v16h-33l-1-1v-120h-9v61l-3 34-2 10h-76v16h-33l-1-3 1-13-25 1-4 5-9 6-13 4h-92l-13-4-6-4-7-7-20-1v15l-1 1h-33v-16h-21l-4-13-5-25-2-19v-33l2-16-57 1-2 1-1 119-1 1h-33zm216 83-1 1-1 23v17l1 28 2 19h18v-11l-1-15-1-62z" fill="#FEFEFE"/>
<path transform="translate(253,485)" d="m0 0h33l1 1v48h67l1-6 1-2h116l-1 8h19v-6l1-2h218l1 2v6l-110 1-1 138-1 1-23 1-4 5-9 6-13 4h-92l-13-4-6-4-7-7-20-1v15l-1 1h-33v-16h-21l-4-13-5-25-2-19v-33l2-16-57 1-2 1-1 119-1 1h-33zm216 83-1 1-1 23v17l1 28 2 19h18v-11l-1-15-1-62z" fill="#FEFEFE"/>
<path transform="translate(776,534)" d="m0 0h33l1 1v120h89v-120l1-1h33v186l-3 9-7 10-8 6-11 4-97 1-11 13-7 8-9 10-14 13-14 11-13 9-15 9-16 8-16 7-24 8-7 2-4-1 8-8 10-13 13-21 12-25 9-24 7-24 6-26 3-14 1-1h111l1 2-9 20-1 2h71v-25h-90l-12-3-9-6-8-7-2-6-2-5-1-8v-120z" fill="#FEFEFE"/>
<path transform="translate(593,345)" d="m0 0h14l14 4 13 7 12 11 7 7 11 15 12 21 9 20 8 22 8 29 5 23v5h-212l1-11 6-26 9-29 8-20 10-21 12-19 11-13 11-11 11-7 12-5z" fill="#373737"/>
<path transform="translate(494,691)" d="m0 0h212l-1 10-7 30-7 23-11 27-8 16-9 15-9 12-11 12-9 8-9 5-13 5-5 1h-14l-12-3-12-6-9-7-13-13-13-18-12-22-10-24-9-27-7-29-2-10z" fill="#373737"/>
<path transform="translate(253,485)" d="m0 0h33l1 1v48h67l1-6 1-2h116l-1 8-17 1-11 4-8 6-7 10-2 5-1 6v93l3 10 1 4-1 1h-17v15l-1 1h-33v-16h-21l-4-13-5-25-2-19v-33l2-16-57 1-2 1-1 119-1 1h-33z" fill="#FEFEFE"/>
<path transform="translate(953,498)" d="m0 0h38l12 14 9 11 12 14 8 10 11 13 5 6 6-5 9-11 11-13 9-11 11-13 9-11 3-4h38v9l-13 15-9 11-12 14-9 11-12 14-9 11-8 10 2 4 9 11 12 14 9 11 12 14 11 13 9 11 8 10v9h-37l-10-11-9-11-11-13-9-11-11-13-7-9h-3l-9 11-11 13-9 11-11 13-9 11-8 9h-36l-1-1v-7l7-9 11-13 9-11 11-13 9-11 11-13 9-11 5-6-2-5-9-10-18-22-11-13-14-17-11-13-7-9z" fill="#FEFEFE"/>
<path transform="translate(539,352)" d="m0 0 4 1-8 8-10 13-10 16-7 12-11 25-11 33-7 28-4 20-1 1h-111l-1-2 7-16 12-23 13-19 11-14 14-15 10-10 11-9 13-10 19-12 19-10 27-11z" fill="#383838"/>
<path transform="translate(363,691)" d="m0 0h111l2 5 8 37 9 29 10 25 8 16 9 16 12 16 11 12-4 1-20-6-21-8-21-10-18-11-15-11-13-11-10-9-11-11-9-11-10-13-12-19-12-23-5-13z" fill="#383838"/>
<path transform="translate(657,352)" d="m0 0 8 1 19 6 20 8 16 8 18 10 18 13 13 11 13 12 13 14 15 20 12 19 13 26 3 8-1 1h-111l-3-9-6-28-9-31-11-28-10-20-12-19-8-10-9-10z" fill="#383838"/>
<path transform="translate(49,498)" d="m0 0h191v33l-1 1-77 1-1 157h-33l-1-1v-157h-78z" fill="#FEFEFE"/>
<path transform="translate(726,691)" d="m0 0h111l1 2-9 20-2 2-25 1v32l3 2-2 5-12 14-12 13-13 12-14 11-13 9-15 9-16 8-16 7-24 8-7 2-4-1 8-8 10-13 13-21 12-25 9-24 7-24 6-26 3-14z" fill="#383838"/>
<path transform="translate(728,526)" d="m0 0h116l4 13 5 26 2 20v29l-2 21-4 20h-39l-1-120h-33v120l2 11 3 7h-24l-1-110-5-12-9-10-8-4-5-2z" fill="#383838"/>
<path transform="translate(635,569)" d="m0 0h78l1 1v60l-3 34-1 8-1 1h-76v-102z" fill="#353535"/>
<path transform="translate(487,569)" d="m0 0h60l1 1v84l-1 1h-58l-2-10-1-15v-55z" fill="#353535"/>
<path transform="translate(491,526)" d="m0 0h218l1 2v6l-110 1-1 138h-22l2-6 2-7v-95l-3-10-6-9-7-6-10-4-3-1-62-1v-6z" fill="#3F3F3F"/>
<path transform="translate(356,526)" d="m0 0h116l-1 8-17 1-11 4-8 6-7 10-2 5-1 6v93l3 10 1 4h-18l-1-106-2-9-5-9-5-6-11-6-7-2-26-1 1-6z" fill="#3C3C3C"/>
<path transform="translate(347,569)" d="m0 0h29l1 2v102h-21l-3-8-5-23-3-25v-33l1-12z" fill="#363636"/>
<path transform="translate(459,569)" d="m0 0h9v40l1 28 1 18h-11z" fill="#3D3D3D"/>
</svg>
